<?xml version="1.0" encoding="utf-8"?>
<!-- Generator: Adobe Illustrator 22.1.0, SVG Export Plug-In . SVG Version: 6.00 Build 0)  -->
<svg version="1.1" xmlns="http://www.w3.org/2000/svg" xmlns:xlink="http://www.w3.org/1999/xlink" x="0px" y="0px"
	 viewBox="0 0 2272 1872" style="enable-background:new 0 0 2272 1872;" xml:space="preserve">
<style type="text/css">
	.st0{fill:#FFFFFF;}
	.st1{fill:#FEC83D;}
	.st2{fill:#D8A535;}
	.st3{fill:#EF7C2E;}
	.st4{fill:#A02A27;}
	.st5{fill:#C63E34;}
	.st6{fill:#440235;}
	.st7{fill:#912422;}
	.st8{fill:#F9AE90;}
	.st9{fill:#343451;}
	.st10{fill:#424268;}
	.st11{fill:#59588C;}
	.st12{fill:#FFEECB;}
	.st13{fill:#8889C2;}
	.st14{fill:#7173A8;}
	.st15{fill:#8681BD;}
	.st16{fill:#FACDDC;}
	.st17{fill:#BC8499;}
	.st18{fill:#D85E38;}
	.st19{fill:#9B3F26;}
	.st20{fill:#A5A4C1;}
	.st21{fill:#C6C6E5;}
	.st22{fill:#A32B28;}
	.st23{fill:#EC5946;}
</style>
<g id="Background">
	<g id="Layer_1_1_">
	</g>
	<g id="Layer_2">
	</g>
	<g id="Layer_1_2_">
	</g>
	<g id="Layer_2_1_">
	</g>
	<g>
		<g>
			<rect x="0" class="st0" width="2272" height="1872"/>
		</g>
	</g>
</g>
<g id="object">
	<g>
		<path class="st1" d="M2205,1286.1c15.8-90.8-34.7-180.5-96.1-249.2c-106.3-118.8-255.3-210.8-304.1-362.5
			c-29.4-91.6-18.8-197.8-73.9-276.8c-46.3-66.4-129.1-97.2-208.9-110.2c-166.2-27.1-341.9,8.4-484.6,98
			c-73.5,46.1-141.1,107.2-225.8,126.1c-82.2,18.4-168.7-6-251.8,7.2C476.4,532,401.1,584,354.8,654.4s-64.3,158-54.8,241.8
			c9.7,84.9,46,172.1,17.6,252.7c-28.6,81.3-113.9,128-159.5,201.1c-41.1,65.8-46.7,149.7-27.4,224.8
			c16.5,64.3,29.1,95.9,62.9,141.4h1809.9c17.3-33.5,16.8-76.5,25.9-114.6C2057.6,1483.4,2184.1,1405.8,2205,1286.1z"/>
		<path class="st2" d="M2017.2,1638.6c-0.2-0.3-0.4-0.5-0.6-0.8c-1-1.4-2.1-2.7-3.3-3.9c-0.4-0.5-0.9-0.9-1.3-1.4
			c-2.7-2.8-6-6-9.9-9.5c-2-1.8-4.1-3.7-6.3-5.6c-1.5-1.3-3-2.6-4.7-4c-0.8-0.7-1.6-1.4-2.5-2.1c-1.7-1.4-3.4-2.9-5.2-4.3
			c-0.9-0.7-1.8-1.5-2.7-2.2c-1.8-1.5-3.7-3.1-5.6-4.6c-1.9-1.6-3.9-3.2-5.9-4.8c-5.1-4.1-10.4-8.4-16.1-12.8
			c-4.5-3.5-9.2-7.2-13.9-10.9c-6-4.6-12.2-9.4-18.6-14.3c-1.3-1-2.6-1.9-3.9-2.9c-5.2-3.9-10.4-7.9-15.8-11.9c-1.3-1-2.7-2-4-3
			c-5.4-4-10.9-8.1-16.4-12.2c-1.4-1-2.8-2.1-4.2-3.1c-2.8-2.1-5.6-4.1-8.4-6.2c-18.2-13.5-36.8-27.1-55-40.3
			c-5.6-4.1-11.2-8.1-16.7-12.1c-6.9-5-13.7-9.9-20.4-14.7c-2.7-1.9-5.3-3.8-8-5.7c-1.3-0.9-2.6-1.9-3.9-2.8
			c-2.6-1.9-5.2-3.7-7.7-5.6c-5.1-3.7-10.1-7.2-15-10.7c-2.4-1.7-4.8-3.5-7.2-5.1c-11.8-8.4-22.7-16.2-32.4-23.1
			c-2.9-2.1-5.7-4-8.4-5.9c-4.5-3.1-8.6-6.1-12.3-8.7c-1.5-1.1-2.9-2.1-4.3-3c-12.3-8.7-19.5-13.7-19.5-13.7l-67.1-245.9
			c29.3-42.1,63.4-107.3,66.8-163.9c41.2-13.6,75.8-46.5,91.8-87.1c18.3-46.4,12.4-101.2-13.6-143.8c-13.9-22.7-33.1-41.9-54-58.4
			c-55.6-44-123.8-69.9-193.2-84.5c-3.8-0.8-7.7-1.6-11.5-2.4c-1.4-0.3-2.8-0.6-4.2-0.9c-0.8-0.2-1.5-0.3-2.3-0.5
			c-1-0.2-1.9-0.4-2.9-0.6c-0.8-0.2-1.6-0.3-2.4-0.5c-0.9-0.2-1.9-0.4-2.8-0.6c-0.8-0.2-1.7-0.3-2.5-0.5c-0.9-0.2-1.9-0.4-2.8-0.5
			c-0.8-0.2-1.7-0.3-2.5-0.5c-0.9-0.2-1.9-0.3-2.8-0.5c-0.8-0.2-1.7-0.3-2.5-0.5c-0.9-0.2-1.9-0.3-2.8-0.5c-0.8-0.2-1.7-0.3-2.5-0.5
			c-0.9-0.2-1.9-0.3-2.8-0.5c-0.8-0.1-1.7-0.3-2.5-0.4c-1-0.2-1.9-0.3-2.9-0.5c-0.8-0.1-1.7-0.3-2.5-0.4c-1-0.2-1.9-0.3-2.9-0.5
			c-0.8-0.1-1.7-0.3-2.5-0.4c-1-0.2-2-0.3-2.9-0.5c-0.8-0.1-1.7-0.3-2.5-0.4c-1-0.2-2-0.3-2.9-0.4c-0.8-0.1-1.7-0.3-2.5-0.4
			c-0.7-0.1-1.4-0.2-2-0.3c0-12-4.5-24.4-12.6-33.5c-4.5-5.1-10-9.3-16.3-11.8c-5.3-2-11-2.7-16.7-3.4c-22.6-2.7-45.2-5.3-67.9-8
			c-21.3-2.5-42.6-5-64-4.6c-24.4,0.5-49.9,5.3-68.9,20.6c-8,6.5-16.6,18.2-20.8,30.6c-0.1,0-0.1-0.1-0.2-0.1
			c-0.5-0.2-0.9-0.4-1.4-0.6c-0.2-0.1-0.4-0.2-0.6-0.3c-0.4-0.2-0.8-0.4-1.1-0.5c-0.2-0.1-0.5-0.2-0.7-0.3c-0.3-0.2-0.6-0.3-1-0.4
			c-0.2-0.1-0.4-0.2-0.6-0.3c-0.3-0.2-0.7-0.3-1-0.4c-0.1-0.1-0.3-0.1-0.4-0.2c-0.3-0.1-0.6-0.3-0.9-0.4c-0.1-0.1-0.3-0.1-0.4-0.2
			c-0.2-0.1-0.4-0.2-0.6-0.3c-0.2-0.1-0.4-0.2-0.5-0.2c-0.2-0.1-0.4-0.2-0.6-0.3c-0.1-0.1-0.2-0.1-0.4-0.2c-0.2-0.1-0.4-0.2-0.6-0.3
			c-0.1,0-0.2-0.1-0.3-0.1c-0.1-0.1-0.3-0.1-0.4-0.2c-0.1,0-0.1-0.1-0.2-0.1c-0.5-0.2-0.8-0.4-0.8-0.4l-12.2-24.7
			c5.5-4.4,9.9-10,12.2-16.8c-6.9,3.8-15,5.3-22.8,4.4c-2.5-0.3-5.1-0.9-7.1-2.5c-6-4.8-2.7-14.3,0.5-21.4
			c15.2-33.5,16.7-73,3.9-107.5c-3.3-8.9-7.5-17.6-13.9-24.6c-1.6-1.7-3.3-3.3-5-4.8c-17.9,9.1-35.3,19-52.3,29.7
			c-43.4,27.3-84.8,59.8-128.9,85.7c-1.6,6.1-2.6,13.4-2.6,21.3c0,21.6,7.1,39.1,15.8,39.1c2.1,0,4.1-1,5.9-2.8
			c7.1,21.5,19.5,38.7,40.8,40.1c43,3,58.5-8.5,63.9-15.5c1.9-2.5,2.6-4.4,2.7-4.8c0,0,0,0,0,0c0-0.1,0-0.1,0-0.1l25.7,45.3
			c-2.8,4.3-4.3,7.7-3.6,9.5c2.4,6.3,11.9,23.8,19.3,37v0c0,0,0.2,1.2,0.6,3.4c-1.3,5.3-1.9,10.7-1.6,16.2
			c0.3,5.1,2.7,17.4,8.3,21.9c0.1,0.8,0.3,1.7,0.4,2.5c0.1,0.4,0.1,0.7,0.2,1.1c0.1,0.5,0.2,1,0.3,1.5c0,0.2,0.1,0.3,0.1,0.5
			c4,22.8,8.9,51.4,13.8,80.5C1049,747.8,915,662.7,865.9,631.1l-10.5-133.3c-14.2,5.7-28.7,10.5-43.8,13.8
			c-57.6,12.9-117.3,4.8-176.4,3.3l20.1,94.9c-1.1,0.4-2.2,1-3.1,1.7c-4,3.3-4.1,9.3-3.6,14.5c1.5,15.8,5.4,31.4,11.5,46.1
			c1.8,4.2,3.8,8.4,7.1,11.5c1.3,1.2,2.8,2.2,4.4,3l5.6,26.4h0l4.6,21.8l117.5,86.5l-3-38.9h0l-1.5-19.8
			c87.2,93,269.9,278,327.3,258.9c14-4.7,28.6-12.2,43.3-22.1c0.3,0.4,0.5,0.8,0.8,1.1c0.1,0.2,0.3,0.4,0.4,0.6
			c0.4,0.6,0.8,1.2,1.2,1.7c0.1,0.2,0.3,0.4,0.4,0.6c0.4,0.6,0.8,1.2,1.2,1.7c0.1,0.2,0.2,0.3,0.4,0.5c0.5,0.7,0.9,1.4,1.4,2.1
			c0,0,0,0.1,0.1,0.1c0.5,0.7,1,1.5,1.5,2.2c0,0.1,0.1,0.1,0.1,0.2c0.4,0.6,0.8,1.2,1.3,1.8c0.1,0.2,0.3,0.4,0.4,0.6
			c0.3,0.5,0.6,0.9,1,1.4c0.2,0.2,0.3,0.5,0.5,0.7c0.3,0.4,0.6,0.8,0.9,1.3c0.2,0.2,0.3,0.4,0.5,0.7c0.3,0.4,0.6,0.8,0.9,1.3
			c0.1,0.2,0.3,0.4,0.4,0.6c0.4,0.5,0.7,1,1.1,1.5c0.1,0.1,0.1,0.2,0.2,0.2c0.4,0.6,0.8,1.1,1.2,1.7c0.1,0.2,0.3,0.4,0.4,0.6
			c0.2,0.3,0.5,0.7,0.7,1c0.2,0.2,0.4,0.5,0.5,0.7c0.2,0.3,0.4,0.6,0.6,0.8c0.2,0.2,0.4,0.5,0.5,0.7c0.2,0.2,0.4,0.5,0.5,0.7
			c0.2,0.3,0.4,0.5,0.5,0.7c0.1,0.2,0.3,0.4,0.4,0.6c0.2,0.3,0.4,0.5,0.6,0.8c0,0.1,0.1,0.1,0.1,0.2c0.8,1.1,1.6,2.2,2.3,3.1
			c0,0,0.1,0.1,0.1,0.1c0.2,0.3,0.5,0.6,0.7,0.9c0,0,0,0,0,0.1c1.7,2.3,3,3.9,3.6,4.7c-119.2,49.2-430.2,183.5-491.3,280.2
			c-74.3,117.4-124.1,343.5-124.1,343.5s-2.9,0.9-7.9,2.4c-0.1,0-0.3,0.1-0.4,0.1c-0.1,0-0.3,0.1-0.4,0.1c-0.2,0-0.3,0.1-0.5,0.2
			c-0.2,0.1-0.4,0.1-0.5,0.2c-0.1,0-0.3,0.1-0.4,0.1c-0.2,0.1-0.4,0.1-0.7,0.2c-0.1,0-0.2,0.1-0.3,0.1c-0.2,0.1-0.4,0.1-0.6,0.2
			c-0.2,0.1-0.4,0.1-0.6,0.2c-0.2,0.1-0.4,0.1-0.6,0.2c-0.1,0-0.3,0.1-0.5,0.1c-0.2,0.1-0.4,0.1-0.7,0.2c-0.8,0.2-1.6,0.5-2.4,0.7
			c-0.2,0.1-0.5,0.2-0.7,0.2c-0.2,0.1-0.3,0.1-0.5,0.2c-0.2,0.1-0.5,0.2-0.8,0.2c-0.2,0.1-0.4,0.1-0.6,0.2c-0.2,0.1-0.4,0.1-0.6,0.2
			c-0.3,0.1-0.5,0.2-0.8,0.2c-0.2,0.1-0.4,0.1-0.6,0.2c-0.2,0.1-0.5,0.1-0.7,0.2c-0.3,0.1-0.5,0.2-0.8,0.2c-0.2,0.1-0.4,0.1-0.7,0.2
			c-0.2,0.1-0.5,0.1-0.7,0.2c-0.3,0.1-0.6,0.2-0.9,0.3c-0.2,0.1-0.4,0.1-0.6,0.2c-0.5,0.2-1,0.3-1.5,0.5c-0.1,0-0.2,0.1-0.3,0.1
			c-0.4,0.1-0.8,0.3-1.2,0.4c-0.2,0.1-0.4,0.1-0.6,0.2c-0.3,0.1-0.6,0.2-1,0.3c-0.2,0.1-0.5,0.2-0.7,0.2c-0.3,0.1-0.6,0.2-0.9,0.3
			c-0.2,0.1-0.5,0.2-0.7,0.2c-0.3,0.1-0.6,0.2-0.8,0.3c-0.2,0.1-0.5,0.2-0.7,0.2c-0.3,0.1-0.7,0.2-1,0.3c-0.2,0.1-0.4,0.1-0.6,0.2
			c-0.3,0.1-0.7,0.2-1,0.3c-0.2,0.1-0.5,0.2-0.7,0.2c-0.4,0.1-0.7,0.2-1.1,0.4c-0.2,0.1-0.4,0.1-0.6,0.2c-0.6,0.2-1.1,0.4-1.7,0.6
			c-0.2,0.1-0.4,0.1-0.6,0.2c-0.4,0.1-0.7,0.2-1.1,0.4c-0.2,0.1-0.5,0.2-0.7,0.2c-0.4,0.1-0.7,0.2-1.1,0.4c-0.2,0.1-0.4,0.1-0.6,0.2
			c-0.4,0.1-0.7,0.2-1.1,0.4c-0.2,0.1-0.5,0.2-0.7,0.2c-0.4,0.1-0.7,0.3-1.1,0.4c-0.2,0.1-0.4,0.2-0.7,0.2c-0.4,0.1-0.7,0.3-1.1,0.4
			c-0.2,0.1-0.5,0.2-0.7,0.2c-0.4,0.1-0.9,0.3-1.3,0.4c-0.2,0.1-0.3,0.1-0.5,0.2c-0.6,0.2-1.2,0.4-1.8,0.6c0,0-0.1,0-0.1,0
			c-0.6,0.2-1.1,0.4-1.7,0.6c-0.2,0.1-0.4,0.2-0.7,0.2c-0.4,0.1-0.8,0.3-1.2,0.4c-0.3,0.1-0.5,0.2-0.8,0.3c-0.4,0.1-0.7,0.3-1.1,0.4
			c-0.3,0.1-0.5,0.2-0.8,0.3c-0.4,0.1-0.7,0.3-1.1,0.4c-0.3,0.1-0.5,0.2-0.8,0.3c-0.4,0.1-0.7,0.3-1.1,0.4c-0.3,0.1-0.5,0.2-0.8,0.3
			c-0.4,0.1-0.8,0.3-1.2,0.4c-0.2,0.1-0.4,0.2-0.6,0.2c-0.5,0.2-1.1,0.4-1.6,0.6c-0.1,0-0.2,0.1-0.3,0.1c-0.6,0.2-1.3,0.5-1.9,0.7
			c-0.2,0.1-0.3,0.1-0.5,0.2c-0.5,0.2-1,0.4-1.4,0.5c-0.2,0.1-0.4,0.2-0.7,0.2c-0.4,0.2-0.8,0.3-1.2,0.5c-0.2,0.1-0.5,0.2-0.7,0.3
			c-0.4,0.2-0.8,0.3-1.2,0.5c-0.2,0.1-0.5,0.2-0.7,0.3c-0.4,0.1-0.8,0.3-1.2,0.4c-0.2,0.1-0.5,0.2-0.7,0.3c-0.4,0.2-0.8,0.3-1.2,0.5
			c-0.2,0.1-0.5,0.2-0.7,0.3c-0.4,0.2-0.9,0.3-1.3,0.5c-0.2,0.1-0.4,0.1-0.6,0.2c-1.3,0.5-2.5,1-3.8,1.5c-0.2,0.1-0.4,0.1-0.5,0.2
			c-0.4,0.2-0.9,0.3-1.3,0.5c-0.2,0.1-0.5,0.2-0.7,0.3c-0.4,0.2-0.8,0.3-1.2,0.5c-0.2,0.1-0.5,0.2-0.7,0.3c-0.4,0.2-0.7,0.3-1.1,0.5
			c-0.2,0.1-0.5,0.2-0.7,0.3c-0.4,0.2-0.8,0.3-1.2,0.5c-0.2,0.1-0.5,0.2-0.7,0.3c-0.4,0.2-0.8,0.3-1.2,0.5c-0.2,0.1-0.4,0.2-0.6,0.2
			c-0.5,0.2-1,0.4-1.5,0.6c-0.1,0-0.2,0.1-0.3,0.1c-0.6,0.3-1.2,0.5-1.8,0.8c-0.1,0-0.2,0.1-0.3,0.1c-0.5,0.2-1,0.4-1.5,0.6
			c-0.2,0.1-0.4,0.2-0.6,0.3c-0.4,0.2-0.8,0.3-1.2,0.5c-0.2,0.1-0.4,0.2-0.6,0.3c-0.4,0.2-0.7,0.3-1.1,0.5c-0.2,0.1-0.4,0.2-0.7,0.3
			c-0.4,0.2-0.7,0.3-1.1,0.5c-0.2,0.1-0.4,0.2-0.7,0.3c-0.4,0.2-0.7,0.3-1.1,0.5c-0.2,0.1-0.4,0.2-0.6,0.3c-0.4,0.2-0.8,0.4-1.2,0.5
			c-0.2,0.1-0.4,0.2-0.5,0.2c-0.5,0.2-1.1,0.5-1.6,0.7c0,0,0,0,0,0c-0.5,0.3-1.1,0.5-1.6,0.8c-0.2,0.1-0.3,0.1-0.5,0.2
			c-0.4,0.2-0.8,0.4-1.1,0.5c-0.2,0.1-0.4,0.2-0.6,0.3c-0.3,0.2-0.7,0.3-1,0.5c-0.2,0.1-0.4,0.2-0.6,0.3c-0.3,0.2-0.6,0.3-1,0.5
			c-0.2,0.1-0.4,0.2-0.6,0.3c-0.3,0.2-0.6,0.3-0.9,0.5c-0.2,0.1-0.4,0.2-0.6,0.3c-0.3,0.2-0.7,0.3-1,0.5c-0.2,0.1-0.3,0.2-0.5,0.3
			c-0.4,0.2-0.7,0.4-1.1,0.6c-0.1,0.1-0.2,0.1-0.4,0.2c-0.5,0.3-1,0.5-1.4,0.8c-0.1,0-0.1,0.1-0.2,0.1c-0.4,0.2-0.8,0.4-1.2,0.6
			c-0.1,0.1-0.3,0.2-0.4,0.2c-0.3,0.2-0.6,0.3-0.9,0.5c-0.2,0.1-0.3,0.2-0.5,0.3c-0.3,0.2-0.5,0.3-0.8,0.5c-0.2,0.1-0.3,0.2-0.5,0.3
			c-0.3,0.2-0.5,0.3-0.8,0.5c-0.2,0.1-0.3,0.2-0.5,0.3c-0.3,0.2-0.5,0.3-0.8,0.5c-0.2,0.1-0.3,0.2-0.5,0.3c-0.3,0.2-0.5,0.3-0.8,0.5
			c-0.1,0.1-0.3,0.2-0.4,0.2c-0.4,0.2-0.7,0.5-1,0.7c0,0-0.1,0-0.1,0.1c-0.4,0.2-0.7,0.5-1.1,0.7c-0.1,0.1-0.2,0.1-0.3,0.2
			c-0.3,0.2-0.5,0.4-0.8,0.5c-0.1,0.1-0.2,0.2-0.4,0.3c-0.2,0.2-0.4,0.3-0.6,0.5c-0.1,0.1-0.1,0.1-0.2,0.2h229.1
			c0.3-0.6,0.6-1.2,0.8-1.8c0-0.1,0.1-0.2,0.1-0.2c0.3-0.7,0.7-1.5,1.1-2.2c0-0.1,0.1-0.2,0.1-0.3c0.4-0.8,0.8-1.6,1.2-2.5
			c0,0,0,0,0-0.1c1.3-2.7,2.6-5.5,4-8.5c0-0.1,0.1-0.2,0.1-0.2c0.4-0.9,0.9-1.8,1.3-2.7c0.1-0.1,0.1-0.3,0.2-0.4
			c0.4-0.8,0.8-1.7,1.2-2.6c0.1-0.2,0.2-0.4,0.3-0.6c0.5-1,0.9-2,1.4-3c0,0,0,0,0-0.1c1.1-2.2,2.1-4.4,3.2-6.7c0,0,0,0,0-0.1
			c0.5-1.1,1-2.1,1.6-3.2c0.1-0.2,0.2-0.4,0.3-0.6c0.5-0.9,0.9-1.9,1.4-2.9c0.1-0.2,0.2-0.4,0.3-0.7c0.5-1,1-2,1.5-3
			c0.1-0.1,0.1-0.3,0.2-0.4c0.6-1.2,1.2-2.4,1.8-3.6l0,0c47-95.4,134-259.4,186.4-280.4c41.6-16.6,238.4-73.6,412.2-130.2
			c41.7,58.3,98.6,132.3,151.3,181.9c0,0,0,0,0,0c4.5,4.2,8.9,8.2,13.3,12c0,0,0,0,0,0c0.8,0.7,1.6,1.3,2.3,2
			c0.1,0.1,0.3,0.2,0.4,0.4c0.7,0.6,1.4,1.2,2.1,1.8c0.2,0.2,0.4,0.3,0.6,0.5c0.7,0.6,1.4,1.1,2.1,1.7c0.2,0.2,0.4,0.4,0.7,0.5
			c0.7,0.6,1.3,1.1,2,1.6c0.2,0.2,0.4,0.4,0.7,0.5c0.7,0.5,1.3,1.1,2,1.6c0.2,0.2,0.4,0.3,0.6,0.5c0.7,0.6,1.4,1.1,2.1,1.6
			c0.1,0.1,0.1,0.1,0.2,0.2c2.3,1.8,4.7,3.6,7,5.2c0.2,0.1,0.4,0.3,0.5,0.4c0.6,0.4,1.2,0.8,1.7,1.2c0.3,0.2,0.6,0.4,0.9,0.7
			c0.5,0.4,1.1,0.7,1.6,1.1c0.4,0.2,0.7,0.5,1.1,0.7c0.5,0.3,1,0.7,1.5,1c0.4,0.3,0.8,0.5,1.1,0.7c0.5,0.3,1,0.6,1.4,0.9
			c0.4,0.3,0.8,0.5,1.2,0.7c0.5,0.3,0.9,0.6,1.4,0.9c0.4,0.3,0.8,0.5,1.2,0.7c0.5,0.3,0.9,0.6,1.3,0.8c0.4,0.3,0.8,0.5,1.3,0.7
			c0.4,0.3,0.9,0.5,1.3,0.8c0.5,0.3,1,0.6,1.5,0.8c0.4,0.2,0.9,0.5,1.3,0.7c0.7,0.4,1.5,0.8,2.2,1.2c0.3,0.2,0.7,0.3,1,0.5
			c0.5,0.3,1,0.5,1.5,0.8c0.4,0.2,0.7,0.4,1.1,0.5c0.5,0.2,0.9,0.5,1.4,0.7c0.4,0.2,0.7,0.3,1.1,0.5c0.5,0.2,0.9,0.4,1.4,0.6
			c0.4,0.2,0.7,0.3,1.1,0.5c0.5,0.2,0.9,0.4,1.4,0.6c0.4,0.1,0.7,0.3,1,0.4c0.5,0.2,0.9,0.4,1.4,0.5c0.3,0.1,0.7,0.3,1,0.4
			c0.5,0.2,0.9,0.3,1.4,0.5c0.3,0.1,0.6,0.2,0.9,0.3c0.5,0.2,1,0.3,1.6,0.5c0.3,0.1,0.5,0.2,0.8,0.2c0.8,0.2,1.5,0.5,2.3,0.7
			c11.2,3,24.8,7.5,40.1,13.1c2.2,0.8,4.4,1.6,6.7,2.5c4.5,1.7,9.2,3.5,14,5.4c2.4,0.9,4.8,1.9,7.3,2.9c7.3,2.9,14.9,6,22.8,9.2
			c5.2,2.1,10.5,4.4,15.9,6.6c1.3,0.6,2.7,1.1,4,1.7c5.4,2.3,10.9,4.6,16.4,7c2.8,1.2,5.6,2.4,8.4,3.6c2.8,1.2,5.6,2.4,8.4,3.6
			c5.6,2.4,11.3,4.9,17.1,7.4c2.9,1.3,5.7,2.5,8.6,3.8c1.4,0.6,2.9,1.3,4.3,1.9c2.9,1.3,5.8,2.5,8.6,3.8c8.7,3.8,17.3,7.7,26,11.5
			c2.9,1.3,5.8,2.6,8.6,3.9c5.8,2.6,11.5,5.1,17.2,7.7c20,8.9,39.5,17.7,58,25.9c1.3,0.6,2.6,1.2,4,1.8c2.6,1.2,5.2,2.3,7.8,3.4
			c2.6,1.1,5.1,2.3,7.7,3.4c6.3,2.8,12.5,5.5,18.4,8c7.2,3.1,14,6.1,20.6,8.8c2.2,0.9,4.3,1.8,6.4,2.7c1.1,0.4,2.1,0.9,3.1,1.3
			c4.1,1.7,8.1,3.4,12,4.9c1,0.4,1.9,0.8,2.8,1.1c3.7,1.5,7.3,2.9,10.7,4.2c2.5,1,5,1.9,7.3,2.7c1.5,0.6,3,1.1,4.5,1.6
			c0.7,0.3,1.4,0.5,2.1,0.7c1.4,0.5,2.7,0.9,4,1.3c0.6,0.2,1.2,0.4,1.7,0.6c-19.5,12.4-52.5,34.1-76.9,53.9h154.9
			c10.7-20.7,14.6-45,18.1-69.5c-0.8-1.4-1.5-2.9-2.4-4.4C2019,1641.3,2018.3,1640,2017.2,1638.6z M1108.3,541.9l-3.1-4.3
			c0.1,0,0.3-0.1,0.4-0.1c0.1,0,0.3-0.1,0.4-0.1c0.8-0.3,1.5-0.5,2.3-0.8c0.1,0,0.2-0.1,0.4-0.1c0.6-0.2,1.3-0.5,1.9-0.8
			c0.2-0.1,0.4-0.2,0.6-0.3c0.6-0.3,1.2-0.5,1.8-0.8c0.1-0.1,0.3-0.1,0.4-0.2c0.7-0.4,1.4-0.7,2.2-1.1c0.1,0,0.1-0.1,0.2-0.1
			c0.6-0.4,1.2-0.7,1.8-1.1c0.2-0.1,0.3-0.2,0.5-0.3c0.5-0.3,1.1-0.7,1.6-1c0.1-0.1,0.3-0.2,0.4-0.3c0.7-0.5,1.3-0.9,1.9-1.4
			C1122,528.9,1116.3,534.2,1108.3,541.9z"/>
		<path class="st3" d="M2059.8,1558.9c-3.1,2-6.3,4.2-9.6,6.5c-23.2,16.1-46.1,38.1-74.3,36.8c-39.1-1.8-61.4-48.2-58.9-87.3
			c2.4-39.1,20.3-75.9,22.9-115c2.6-39.1-19.1-85.6-58.1-88c-22.2-1.3-42.6,12.3-58,28.3c-47.1,49-60.9,119.8-86.7,182.7
			c-10,24.4-24.3,50-49.2,58.7c-37.7,13.3-77.6-21.3-88.6-59.7c-11-38.4-3-79.3-2.4-119.2c0.3-21.3-36-29.9-70.6-3.5
			c-65.2,49.6-115.8,99.3-160.7,167.9c-16.9,25.8-81.3,30.8-110.1,41.9c-28.8,11.1-67.3,1.8-79.1-26.7c-9-21.6-1.3-49.3-16-67.6
			c-20.3-25.4-62.3-9.4-84.9,14.1c-22.6,23.5-43.2,54.8-75.5,58.2c-24.9,2.6-48.8-13.6-62.5-34.6s-19.3-46.1-24.6-70.5
			c-8.3-38.1-16.6-76.1-24.8-114.2c-3.1-14.3-6.8-29.6-18-39c-11.1-9.5-27.2-10.6-41.7-8.3c-40,6.5-73.2,36.1-94.7,70.5
			c-21.4,34.4-33.1,73.9-46.3,112.2c-9.8,28.7-25.2,61.1-54.9,67c-39.8,7.8-68.7-37.3-79.3-76.4c-10.6-39.1-20.6-86.3-58.3-101.3
			c-33.7-13.4-71.8,8.1-94.8,36.1c-23,28-37.1,62.6-61.2,89.6c-24.1,27-64.9,45.4-96.6,27.9c-46.5-25.6-48-111.1-100.9-115.1
			c-22.2-1.7-42.7,15.1-51.6,35.4c-9,20.4-8.6,43.6-6.3,65.7c8.1,77.8,39,153.2,88,214.2l1868.2,8.7c39.8-33.6,72.5-74.1,99.8-118.3
			C2171.6,1584.8,2110.8,1525.7,2059.8,1558.9z"/>
		<path class="st1" d="M1139,1604.2c-9,3.5-17.7,7.7-26.4,11.8c-4.7,2.2-9.4,4.4-14.1,6.5c-1.8,0.8-3.7,1.7-5.5,2.5
			c1.5-3.3,3.1-6.7,4.7-10c12.1-25.4,24.6-50.7,37-76c2.3-4.8-4.7-9-7.2-4.2c-13.3,25.5-26.8,50.9-39.8,76.4c-2,4-4.1,8.1-6,12.1
			c-0.5-1.3-0.9-2.6-1.3-3.5c-2-4.5-3.7-9-5.3-13.6c-3.2-9.2-6-18.5-8.3-28c-1.2-4.9-8.3-2.8-7.5,2.1c2,11.5,4.6,22.8,7.9,34
			c1.9,6.3,3.4,16.6,8.2,22.5c-1.6,3.6-3.1,7.2-4.6,10.8c-3,7.4-6.2,15.2-8.6,23.2c-0.5-1.8-1-3.4-1.3-4.2
			c-1.9-5.4-3.9-10.7-5.7-16.1c-3.7-11.1-6.8-22.3-9-33.9c-1.1-5.4-9.2-3.1-8.2,2.3c2.4,13.4,4.9,26.8,8,40
			c1.5,6.5,3.3,12.8,5.3,19.2c1.1,3.6,2.3,7.1,4.6,9.9c-2.3,5.9-4.5,11.9-6.5,17.9c-2.1,6.2-4.7,12.6-5.4,19.1
			c-0.6,5.9,8.5,8.1,11.1,3c2.8-5.6,4.1-12,5.8-17.9c1.7-5.6,3.4-11.2,5.1-16.7c0.1,0,0.1,0,0.2,0c4.1,0.3,8.4-0.8,12.4-1.8
			c6.5-1.5,12.9-3.2,19.3-5.1c13.4-3.9,26.5-8.8,38.9-15.3c6.9-3.6,2.2-15.2-5.3-12.7c-10.8,3.6-21.5,7.5-32.3,11.1
			c-5.4,1.8-10.9,3.5-16.4,5.1c-3,0.9-6.1,1.7-9.2,2.5c0,0,0,0,0,0c2.4-8.6,4.8-17.2,8.1-25.6c1.3-3.4,2.6-6.7,4-10
			c3.1-0.1,6.2-1.1,9.2-2.4c5.4-2.3,10.7-4.6,16-7c11.2-5,22.6-9.9,33.1-16.2C1150.1,1612.4,1146.1,1601.4,1139,1604.2z"/>
		<path class="st1" d="M1532.4,1542.5c-8.7,6.3-16.5,14.1-24.7,21.1c-3.6,3-7.1,6-10.8,9c5.5-17.9,11-35.7,16.5-53.6
			c5.9-19.1,11.3-38.3,17.2-57.3c0.9-2.9-3.6-4.1-4.6-1.3c-5.9,16.8-12.3,33.4-18,50.2c-5.7,16.8-11.3,33.7-16.7,50.6
			c-0.9,2.8-1.8,5.6-2.7,8.5c-4.5-21.2-9-42.4-14.6-63.4c-0.7-2.5-4.1-1.4-3.8,1c1.9,12.8,4,25.6,6.5,38.3
			c1.2,6.1,2.4,12.2,3.6,18.4c1.2,6.2,2,12.7,3.7,18.7c0.1,0.2,0.1,0.5,0.2,0.7c-7.4,23.2-14.5,46.4-21.6,69.6
			c-0.1-0.6-0.1-1.3-0.2-1.9c-2.6-26.8-4.5-53.6-5.8-80.5c-0.2-3.5-5.4-3.5-5.4,0c0.2,24,0.9,47.9,2.5,71.8c0.4,6,0.8,12,1.3,17.9
			c0.3,3.4,0.2,7.6,2.2,10.5c-2,6.7-4,13.4-5.9,20.1c-2.8,9.7-6.3,19.6-8,29.6c-0.9,5,5.6,6.7,7.5,2.1c3.4-8.1,5.5-16.9,8.1-25.4
			c2.4-8,4.9-16,7.2-24c2-0.6,3.9-1.8,5.5-3.1c4.6-3.6,9-7.4,13.5-11.1c5.2-4.3,10.3-8.6,15.4-13c4.9-4.2,10.9-8.2,14.5-13.5
			c2.4-3.4-2.1-6.9-5.3-5.3c-5.6,2.8-10.3,8.1-14.9,12.1c-4.9,4.2-9.9,8.5-14.8,12.7c-3.4,2.8-6.7,6.1-10.2,8.9
			c4-13.4,8-26.8,12.1-40.2c3.6-11.7,7.1-23.4,10.7-35c0.7-0.5,1.4-1,2.1-1.6c4.7-3.6,9.3-7.4,13.8-11.1c4.6-3.8,9.2-7.7,13.8-11.7
			c4.8-4.2,9.9-8.4,14.1-13.2C1539.2,1545.2,1535.9,1540,1532.4,1542.5z"/>
		<path class="st1" d="M817.8,1477.8c-12.6,9.1-23.9,20.5-35.8,30.5c-5.1,4.4-10.3,8.7-15.6,13c7.9-25.9,15.9-51.7,23.9-77.6
			c8.5-27.6,16.3-55.4,24.9-82.9c1.3-4.2-5.1-5.9-6.6-1.8c-8.6,24.3-17.7,48.3-26,72.7c-8.2,24.3-16.3,48.7-24.2,73.2
			c-1.3,4.1-2.6,8.2-3.9,12.2c-6.5-30.7-13.1-61.4-21.1-91.7c-1-3.6-6-2-5.5,1.5c2.7,18.5,5.7,37,9.3,55.4
			c1.7,8.9,3.5,17.7,5.2,26.6c1.8,8.9,2.9,18.3,5.3,27.1c0.1,0.4,0.2,0.7,0.3,1c-10.6,33.5-21,67.1-31.2,100.7
			c-0.1-0.9-0.2-1.8-0.3-2.8c-3.7-38.7-6.6-77.6-8.4-116.4c-0.2-5-7.9-5.1-7.8,0c0.2,34.7,1.4,69.3,3.7,103.9
			c0.6,8.6,1.2,17.3,1.9,25.9c0.4,5,0.2,11.1,3.2,15.1c-2.9,9.7-5.7,19.4-8.5,29.1c-4,14.1-9.1,28.3-11.5,42.8
			c-1.2,7.3,8.1,9.7,10.9,3c4.9-11.8,8-24.5,11.7-36.7c3.5-11.6,7-23.2,10.5-34.8c2.9-0.9,5.7-2.6,8-4.4c6.6-5.2,13-10.7,19.5-16.1
			c7.5-6.2,14.9-12.5,22.3-18.8c7.1-6,15.7-11.8,21-19.5c3.4-5-3.1-10-7.7-7.7c-8,4-14.8,11.7-21.6,17.6
			c-7.1,6.1-14.3,12.3-21.4,18.3c-4.8,4.1-9.7,8.8-14.7,12.9c5.8-19.4,11.6-38.8,17.5-58.2c5.2-16.9,10.3-33.8,15.5-50.7
			c1.1-0.7,2.1-1.5,3.1-2.3c6.8-5.2,13.4-10.7,20-16.1c6.7-5.6,13.4-11.2,19.9-16.9c6.9-6.1,14.3-12.1,20.4-19.1
			C827.7,1481.8,822.9,1474.2,817.8,1477.8z"/>
		<path class="st1" d="M491.3,1505.5c-8,9.9-14.4,21.3-21.6,31.8c-3.1,4.6-6.3,9.1-9.5,13.6c0.7-22.1,1.4-44.2,2.1-66.3
			c0.7-23.6,0.9-47.2,1.7-70.7c0.1-3.6-5.3-3.6-5.6,0c-1.5,21-3.5,41.9-4.8,62.9c-1.2,21-2.3,41.9-3.2,62.9c-0.2,3.5-0.3,7-0.5,10.5
			c-11.8-22.8-23.6-45.5-36.5-67.7c-1.5-2.6-5.1-0.3-4,2.4c6.1,14,12.5,27.9,19.3,41.6c3.3,6.6,6.6,13.2,9.9,19.8
			c3.3,6.7,6.2,13.8,10.1,20.2c0.2,0.3,0.3,0.5,0.5,0.7c-1.1,28.7-2,57.4-2.8,86.1c-0.3-0.7-0.5-1.4-0.8-2.1
			c-11.3-29.7-21.9-59.7-31.8-89.9c-1.3-3.9-7.3-2.3-6.2,1.7c7.7,27.3,16.1,54.3,25.4,81.1c2.3,6.7,4.7,13.4,7.1,20
			c1.4,3.8,2.6,8.7,5.8,11.2c-0.2,8.3-0.3,16.5-0.4,24.8c-0.1,12-1,24.3,0.2,36.2c0.6,6,8.5,5.9,9.2,0c1.3-10.4,1-21,1.2-31.5
			c0.3-9.9,0.5-19.8,0.7-29.7c2.1-1.4,3.9-3.3,5.3-5.2c4.1-5.5,7.9-11.2,11.9-16.9c4.5-6.5,9-13.1,13.5-19.6
			c4.3-6.3,9.8-12.7,12.3-19.9c1.6-4.7-4.6-7.2-7.7-4.4c-5.5,4.9-9.2,12.5-13.2,18.5c-4.3,6.4-8.6,12.7-12.9,19.1
			c-2.9,4.3-5.7,9-8.8,13.4c0.4-16.6,0.8-33.1,1.2-49.6c0.4-14.4,0.8-28.9,1.3-43.3c0.7-0.8,1.3-1.6,1.9-2.5
			c4.2-5.6,8.3-11.3,12.3-17c4.1-5.8,8.1-11.7,12-17.6c4.2-6.3,8.7-12.6,12-19.4C499.9,1506.6,494.5,1501.6,491.3,1505.5z"/>
		<path class="st1" d="M192.9,1516.9c-0.3,12.7,1.5,25.6,2.2,38.4c0.3,5.5,0.5,11,0.7,16.5c-12.9-17.9-25.8-35.9-38.7-53.9
			c-13.7-19.2-28-38-41.7-57.2c-2.1-3-6.4,0.4-4.4,3.4c11.6,17.6,22.7,35.4,34.5,52.8c11.8,17.4,23.7,34.7,35.7,51.9
			c2,2.9,4,5.7,6,8.6c-23.2-10.9-46.4-21.8-70.1-31.6c-2.8-1.2-4.2,2.9-1.7,4.3c13.4,7.4,26.9,14.6,40.7,21.3
			c6.6,3.2,13.2,6.5,19.9,9.7c6.7,3.3,13.3,7.2,20.2,9.9c0.3,0.1,0.6,0.2,0.8,0.3c16.6,23.5,33.3,46.8,50.2,70
			c-0.6-0.4-1.3-0.8-1.9-1.2c-27-16.7-53.7-34-79.9-52c-3.4-2.3-7.2,2.6-3.9,5.1c22.7,17,45.8,33.3,69.4,48.9
			c5.9,3.9,11.8,7.8,17.8,11.6c3.4,2.2,7.3,5.3,11.5,5.4c4.9,6.7,9.8,13.3,14.8,19.9c7.2,9.6,13.9,19.9,22.1,28.6
			c4.1,4.4,10.3-0.5,7.3-5.6c-5.2-9-12-17.3-18.2-25.7c-5.8-8-11.6-16-17.4-24c0.8-2.4,1.1-5,1-7.4c-0.1-6.9-0.5-13.8-0.9-20.6
			c-0.4-7.9-0.8-15.9-1.2-23.8c-0.4-7.6,0.1-16.1-2.3-23.3c-1.6-4.7-8-2.9-8.8,1.2c-1.4,7.2,0.3,15.5,0.8,22.7
			c0.5,7.7,0.9,15.3,1.3,23c0.3,5.2,1,10.6,1.1,16c-9.8-13.4-19.5-26.7-29.2-40.2c-8.5-11.7-16.9-23.4-25.3-35.1c0.1-1,0-2.1,0-3.1
			c0-7-0.3-14-0.6-21c-0.3-7.1-0.7-14.2-1.2-21.3c-0.5-7.5-0.8-15.3-2.3-22.7C200.4,1512.5,193,1511.8,192.9,1516.9z"/>
		<path class="st1" d="M1896.5,1453.6c-13,9.4-24.5,21-36.7,31.4c-5.3,4.5-10.6,8.9-16,13.3c8.2-26.6,16.4-53.1,24.6-79.7
			c8.7-28.3,16.8-56.9,25.6-85.2c1.4-4.4-5.3-6.1-6.8-1.9c-8.8,24.9-18.2,49.6-26.7,74.6c-8.5,25-16.7,50.1-24.9,75.2
			c-1.4,4.2-2.7,8.4-4,12.6c-6.7-31.5-13.4-63.1-21.7-94.3c-1-3.7-6.1-2.1-5.6,1.5c2.8,19.1,5.9,38,9.6,56.9
			c1.8,9.1,3.6,18.2,5.4,27.3c1.8,9.2,3,18.8,5.5,27.8c0.1,0.4,0.2,0.7,0.3,1.1c-10.9,34.4-21.6,68.9-32,103.5
			c-0.1-0.9-0.2-1.9-0.3-2.8c-3.8-39.8-6.7-79.7-8.7-119.6c-0.2-5.2-8.1-5.2-8.1,0c0.2,35.6,1.4,71.2,3.8,106.8
			c0.6,8.9,1.2,17.8,1.9,26.6c0.4,5.1,0.2,11.4,3.3,15.6c-3,10-5.9,19.9-8.8,29.9c-4.1,14.5-9.3,29.1-11.8,43.9
			c-1.3,7.5,8.3,9.9,11.2,3.1c5.1-12.1,8.2-25.2,12-37.7c3.6-11.9,7.2-23.8,10.8-35.7c3-1,5.8-2.7,8.2-4.6c6.8-5.3,13.4-11,20-16.5
			c7.7-6.4,15.3-12.8,22.9-19.3c7.3-6.2,16.1-12.1,21.6-20c3.5-5.1-3.2-10.3-7.9-7.9c-8.3,4.1-15.2,12-22.2,18
			c-7.3,6.3-14.7,12.6-22,18.8c-5,4.2-9.9,9.1-15.1,13.3c6-19.9,11.9-39.9,18-59.8c5.3-17.4,10.6-34.7,15.9-52.1
			c1.1-0.7,2.1-1.5,3.2-2.3c7-5.3,13.8-11,20.5-16.6c6.9-5.7,13.7-11.5,20.4-17.4c7.1-6.2,14.7-12.4,21-19.6
			C1906.6,1457.7,1901.7,1449.9,1896.5,1453.6z"/>
		<g>
			<path class="st4" d="M346,1135.1L346,1135.1c-58.5,0-105.9,47.4-105.9,105.9v84.9h211.8V1241
				C451.9,1182.5,404.5,1135.1,346,1135.1z"/>
			<rect x="237.4" y="1239.3" class="st5" width="216.5" height="480.9"/>
			<path class="st6" d="M453.9,1239.3H237.4v86.6c44.4-7.7,150.5-25.8,216.5-37V1239.3z"/>
			<path class="st7" d="M279.1,1705L279.1,1705c-10,0-18-8.1-18-18v-367.3c0-10,8.1-18,18-18h0c10,0,18,8.1,18,18V1687
				C297.2,1696.9,289.1,1705,279.1,1705z"/>
			<path class="st7" d="M343.1,1705L343.1,1705c-10,0-18-8.1-18-18v-367.3c0-10,8.1-18,18-18h0c10,0,18,8.1,18,18V1687
				C361.2,1696.9,353.1,1705,343.1,1705z"/>
			<path class="st7" d="M407.1,1705L407.1,1705c-10,0-18-8.1-18-18v-367.3c0-10,8.1-18,18-18h0c10,0,18,8.1,18,18V1687
				C425.2,1696.9,417.1,1705,407.1,1705z"/>
			<rect x="199.8" y="1225.6" class="st5" width="286.8" height="62.5"/>
			<path class="st4" d="M199.8,1268.7v19.4h286.8V1247c-56,0.6-112,4-167.6,10.5C279.3,1262,239.6,1268.1,199.8,1268.7z"/>
		</g>
		<path class="st8" d="M2094.2,1716.1H109.4c-13.6,0-24.5,11-24.5,24.5v0c0,13.6,11,24.5,24.5,24.5h1984.8c13.6,0,24.6-11,24.6-24.5
			v0C2118.8,1727.1,2107.8,1716.1,2094.2,1716.1z"/>
		<g>
			<g>
				<path class="st9" d="M1154.5,1169c0,0,189.4,297.6,291.6,325.1s404.5,180.6,423.1,171.1c18.7-9.5,76,1.5,76.3-21.9
					c0.3-23.3-362.2-276.9-362.2-276.9l-93.4-342.2C1489.9,1024.2,1199.9,1061.1,1154.5,1169z"/>
				<path class="st9" d="M1861.4,1656.1c-31.5,19.6-162.6,103.5-102.5,104.1c68,0.8,207.7-55.1,207.7-55.1
					c-2.3-9.7-3-31.5-22.8-65.5c-6.1-10.5-18.4-15.5-30.1-12.4c-3.5,0.9-7.7,1.3-16.1,3.5
					C1875.2,1636.4,1875.2,1636.4,1861.4,1656.1z"/>
				<path class="st10" d="M1583.3,1366.4l-31.3-114.6c-53,70.8-115.2,134.7-184.8,189.4c28.6,26.9,55.9,46.7,78.8,52.9
					c102.2,27.5,404.5,180.6,423.1,171.1c18.7-9.5,76,1.5,76.3-21.9C1945.8,1620,1583.3,1366.4,1583.3,1366.4z"/>
				<path class="st10" d="M1164.6,1019c-20.1,8.6-462.9,181.5-537.2,298.9c-74.3,117.4-124.1,343.5-124.1,343.5
					s-198.8,58.4-133.2,76.6s214.9,0,214.9,0s144.4-318.7,218.8-348.5s646.9-189,693-243.6c46.1-54.5,137.1-212.1,50.5-275.9
					C1460.7,806.2,1210,999.6,1164.6,1019z"/>
				<path class="st11" d="M1311.3,1004.6c-18.1,27.2-37.2,53.9-57.1,79.9c-19.4,25.5-40.7,49.8-65.3,70.5
					c-26,21.8-55.8,38.2-87.6,49.9c-34.2,12.6-69.8,20.7-105.2,29.2c-38.4,9.3-76.8,18.6-115.2,27.9c-19,4.6-38,9.1-56.9,13.9
					c-17.5,4.4-35,9.7-50.8,18.5c-27.8,15.4-48.5,40.5-66,66.5c-20.2,30.1-38.2,61.9-56.4,93.2c-38.3,66-74.7,133.1-108.4,201.6
					c-4.2,8.6-8.2,17.1-11.7,26c-2.4,6.1,7.2,9.8,10.5,4.4c9.8-16.5,18-34,26.8-51.1c8.8-17.1,17.6-34.2,26.6-51.2
					c17.9-33.7,36.3-67.1,55.2-100.3c18.6-32.6,37.5-64.9,57.2-96.8c16.3-26.4,34.4-53.5,59.9-72c29.4-21.3,66.8-27,101.3-35.4
					c38.7-9.4,77.4-18.9,116.1-28.4c68.5-16.7,140.5-31,197.8-74.6c51.6-39.2,88.7-92.9,120.5-148.6c4-7.1,8.2-14,12.4-21
					C1316.3,1004.4,1312.8,1002.4,1311.3,1004.6z"/>
				<path class="st9" d="M495.9,1663.7c-35.4,10.9-183.7,58.3-125.8,74.4c65.6,18.2,214.9,0,214.9,0s12.7-28,32.4-68.1
					c-17.4,8.6-36.8,13.2-56.2,13C538.2,1682.8,515.3,1675.9,495.9,1663.7z"/>
				<path class="st11" d="M1062.9,615.2c0,0,15.7,165.8-26.9,156.6c-42.7-9.2-262.5-152.6-262.5-152.6l-45.8,41.9
					c0,0,253.3,285.2,318.1,263.6s145.9-116,157.8-211.5C1215.5,617.6,1146.1,632.5,1062.9,615.2z"/>
				<path class="st3" d="M560.1,510l199.6-67.2c0,0,31.3,245.2,24.7,248.4c-6.6,3.1-176.7,43.6-176.7,43.6L560.1,510z"/>
				<path class="st12" d="M574.3,514.1c0,0,185.1-54.7,203-68.2l18.1,229.3l-163.8,40.1L574.3,514.1z"/>
				<g>
					<path class="st13" d="M757.8,481.5c-4.8-2.8-11.5,1-16.4,2.5c-6.5,2-13,4-19.4,6.1c-12.6,4-25.3,8.1-37.8,12.4
						c-25.4,8.8-50.5,18.3-75.5,28.3c-2.5,1-1.5,5.1,1.1,4.2c25.1-9.3,50.5-18,76.1-26.1c12.6-4,25.3-8,38-11.7
						c6.2-1.8,12.4-3.6,18.7-5.3c4.9-1.4,13.5-1.8,16.1-6.8C759.4,483.9,759.1,482.3,757.8,481.5z"/>
					<path class="st13" d="M756.5,503.1c-12.2,1.1-24.4,7.4-35.9,11.6c-12.3,4.4-24.6,8.9-36.9,13.3c-12,4.3-24.1,8.5-36,12.8
						c-12.6,4.6-25,9.8-37.7,14.3c-1.6,0.6-1,3.1,0.7,2.6c12.5-3.8,25.2-6.8,37.6-10.8c12.4-3.9,24.8-8.2,37.2-12.4
						c12.1-4.1,24.1-8.3,36.1-12.6c6.1-2.2,12.3-4.4,18.4-6.7c6.1-2.2,12.3-4.2,17.6-8C759.3,506.1,758.9,502.9,756.5,503.1z"/>
					<path class="st13" d="M761.6,537.3c-22.8,5.3-45.3,13.2-67.5,20.7c-22.3,7.5-44.4,15.7-66.3,24.3c-3,1.2-1.8,6.1,1.4,4.9
						c22.1-7.9,44.4-15.4,66.8-22.6c22.4-7.2,45.2-13,67.5-20.5C767.8,542.7,766.1,536.3,761.6,537.3z"/>
					<path class="st13" d="M752.8,573.2c-9.1,0.7-18.4,4.8-27.1,7.4c-9.7,2.9-19.3,6-29,9c-19,5.9-38,11.9-56.9,18.3
						c-1.9,0.6-1.1,3.4,0.8,3c19.4-4.5,38.6-9.8,57.7-15.2c9.4-2.7,18.8-5.3,28.2-8.1c9-2.7,19.5-4.5,27.6-9.3
						C756.4,577,755.6,573,752.8,573.2z"/>
					<path class="st13" d="M772.8,595.6c-4.5-1.2-9.4,1.2-13.7,2.6c-5,1.6-10,3.3-15,4.9c-10.6,3.4-21.3,6.8-31.9,10.1
						c-21,6.5-42.1,12.9-63.2,19c-3.4,1-2,6.2,1.5,5.3c21.3-5.6,42.5-11.4,63.6-17.7c10.4-3.1,20.7-6.3,31.1-9.6
						c5-1.6,10-3.2,15-4.8c4.4-1.4,10.7-2.5,13.7-6.2C774.7,597.9,774.5,596,772.8,595.6z"/>
					<path class="st13" d="M772.2,629.5c-8.3-0.3-17.3,3.9-25.1,6.4c-8.9,2.8-17.8,5.7-26.7,8.8c-17.5,6-34.7,12.4-51.8,19.5
						c-1.9,0.8-1.2,3.7,0.9,3.1c17.7-5.1,35.2-10.5,52.8-15.9c8.6-2.6,17.3-5.3,25.9-7.9c8.1-2.5,18.4-3.9,25.4-8.9
						C775.8,633.1,775.1,629.6,772.2,629.5z"/>
				</g>
				<path class="st13" d="M1044.3,555.9l15.8-2.3c0,0,472.4,213.6,487.2,316.4c14.7,102.8-265.1,218.3-428.1,168.3
					c0,0-69.4-87.7-74.8-140.4c-5.5-52.7-41.9-257.8-41.9-257.8S1028.5,558.2,1044.3,555.9z"/>
				<path class="st11" d="M1099.1,639.2c37.9-8.5,80.6-0.1,108.8,26.6c12.4,11.7,21.6,26.4,34.3,37.8s30.5,19.5,46.6,13.8
					c14.6-5.1,22.4-19,27.2-34.3c-125.7-70.7-255.7-129.5-255.7-129.5l-15.8,2.3c-15.8,2.3-41.9,84.4-41.9,84.4s3.7,20.9,8.9,51.1
					C1035.4,666.4,1065.4,646.8,1099.1,639.2z"/>
				<path class="st14" d="M1547.3,870.1c-8.1-56.6-154.8-146.7-285.1-216.3c30.4,35.4,53.6,77,66.5,121.9
					c25.3,88.3,11.3,185.3-32.5,266C1430,1016.4,1557.4,940.3,1547.3,870.1z"/>
				<path class="st11" d="M1547.3,870.1c-7.5-52.4-133.9-133.5-256-200.6c26.7,49.2,45.6,102.5,55.4,157.6
					c8.6,48.7,11.6,101.7,42.3,140.5c10.6,13.3,23.8,23.9,38.6,31.9C1501.8,964.3,1553.9,915.9,1547.3,870.1z"/>
				<path class="st11" d="M1113.6,847.2c26.5-44.9,38.3-98.3,33.2-150.1c-46.3,21.8-83.6,57.8-118.1,96.2
					c7.2,43.8,13.6,84.9,15.7,104.7c0.7,6.6,2.4,13.7,4.8,21.1C1075,899.6,1097.1,875.1,1113.6,847.2z"/>
				<path class="st11" d="M1209.6,961.2c40.3-52,55-124.6,31.8-186.2c-5.8-15.3-14-30.2-26.4-40.9c-12.4-10.7-29.5-16.8-45.5-13.2
					c-20.6,4.6-34.7,23.2-46.2,41c-14.1,21.9-27.1,44.5-38.9,67.6c-11.9,23.2-22.9,47.4-40.3,66.7c0.1,0.6,0.1,1.1,0.2,1.7
					c4.7,44.9,55.8,115.2,70.7,135C1152,1017.1,1185.1,992.9,1209.6,961.2z"/>
				<g>
					<path class="st15" d="M814.6,421.4c-11.8-14.9-17.3-36-9.6-53.3c1.3-2.9,3.2-5.9,6.2-6.9c2.7-0.9,5.7-0.1,8.4,0.7
						c10.5,3,21.2,5.2,32.1,5.4c19.7,0.4,38.9-5.6,57.6-11.8c18.7-6.2,37.6-12.8,57.3-13.8s40.7,4.5,54,19
						c6.4,7,10.6,15.7,13.9,24.6c12.8,34.5,11.3,74-3.9,107.5c-3.2,7-6.5,16.5-0.5,21.4c2,1.6,4.6,2.2,7.1,2.5
						c7.8,0.9,15.9-0.7,22.8-4.4c-6.8,20-30.6,29.3-51.8,28.8c-5.2-0.1-10.5-0.7-15.2-2.8c-5.2-2.3-9.5-6.3-13.8-10.1
						c-19.4-16.9-41.8-30.4-65.8-39.5c-22.5-8.5-37.1-17.2-55.3-32.6C843.9,443.8,826.5,436.4,814.6,421.4z"/>
					<path class="st11" d="M1028.4,525.7c-7.7-5.4-10.3-15.8-9.5-25.1c0.8-9.3,4.4-18.2,6.7-27.3c5.8-22.7,2.2-49.9-16-64.6
						c-12.7-10.2-30.1-12.6-46.3-11.4C941,399,919.8,406.5,898,411c-21.8,4.5-45.4,5.7-65.2-4.5c-14.9-7.7-26.2-23.6-27.1-39.8
						c-0.2,0.4-0.5,0.9-0.7,1.4c-7.7,17.4-2.2,38.4,9.6,53.3c11.9,15.1,29.2,22.5,43.6,34.6c18.1,15.4,32.8,24.1,55.3,32.6
						c24.1,9.1,46.5,22.6,65.8,39.5c4.3,3.8,8.6,7.8,13.8,10.1c4.8,2.1,10,2.7,15.2,2.8c13.9,0.3,29-3.6,39.6-12
						C1041,530.2,1034.1,529.7,1028.4,525.7z"/>
					<ellipse class="st13" cx="847.7" cy="492.5" rx="15.8" ry="39.1"/>
					<path class="st16" d="M845.3,434.4c0,0-11.5,130.3,49.1,134.4c60.5,4.2,66.7-20.4,66.7-20.4l35.4,62.5c0,0,39.5-20.2,47.9-55
						l-48.2-67c0,0,24.5,7.1,29.9-15.1c5.4-22.2-15.1-76.5-52.8-48.7l-3.1,36.1l-21.8,2.3l-4-34
						C944.4,429.4,875.6,457.1,845.3,434.4z"/>
					<path class="st17" d="M983.6,526.9c-6.3,5.6-12.6,11.2-19,16.8c-1.6,1.4-3.1,2.8-4.2,4.6c-0.9,1.5-1.4,3.2-2,4.9
						c0,0.1,0,0.1-0.1,0.2c2.2-2.8,2.7-4.9,2.7-4.9l25.1,44.2c0.2-0.2,0.3-0.4,0.5-0.6C1000.2,573,998.9,544.6,983.6,526.9z"/>
					<path class="st17" d="M897.3,464c13.9-1.8,27.6-7.9,36.9-18.4c2.2,7.4,3.7,15.1,4.4,22.8c6.3-1,12.5-3,18.2-5.8l-8.5,0.9l-4-34
						c0,0-68.8,27.7-99.1,5.1c0,0-0.7,7.9-0.8,19.8c3.5,2.1,7.5,3.7,11.3,4.9C869.1,463.5,883.4,465.8,897.3,464z"/>
					<path class="st11" d="M991.7,448.1c1.6-3.2,4-6.5,7.5-6.9c2.9-0.3,5.6,1.6,7.1,4c1.6,2.4,2.2,5.3,2.7,8.1
						c0.5,2.6,1.1,5.3,1.6,7.9c0.8,4,1.5,8.6-0.8,11.9c-2.2,3.1-6.4,4.1-10.1,3.3C983,473,985.7,460,991.7,448.1z"/>
				</g>
				<path class="st12" d="M1048,528.9c0,0-68.9,63.8-64.8,74.3c4,10.5,28.3,53,28.3,53l48.7-102.7L1048,528.9z"/>
				<polygon class="st18" points="703.2,535.3 560.1,510 607.7,734.8 725.2,821.4 				"/>
				<path class="st19" d="M707.1,683.9c-8.2-10.2-16.7-20.6-28-27.2c-17.9-10.4-40.2-9.7-60.6-6c-9.2,1.6-18.3,3.8-27.4,5.6l12,56.7
					c0.5,0.2,1,0.4,1.5,0.6c11.9,4.1,24.7,4.3,37.3,4.3c5,0,10.1,0,14.7,1.8c4.9,1.9,8.8,5.8,12.6,9.5c17.7,17.7,35.4,35.5,53,53.2
					l-6.8-87.9C712.7,690.9,709.9,687.4,707.1,683.9z"/>
				<path class="st16" d="M625.7,689.3c-11.3,0.2-24.3,2.1-32.6-5.6c-3.3-3.1-5.4-7.3-7.1-11.5c-6.2-14.7-10.1-30.3-11.5-46.1
					c-0.5-5.2-0.4-11.2,3.6-14.5c2.1-1.8,4.9-2.4,7.7-2.7c27.5-3.3,54.6,18,81.6,11.3c9-2.2,17-7.5,23.9-13.7
					c3.2-2.9,6.5-6.1,10.8-6.9c7.5-1.4,14.3,5.9,15.1,13.5s-2.8,14.8-6.8,21.3c-1.8,2.8-3.7,5.7-4,9c-0.4,3.3,0.8,6.6,2.2,9.7
					c4.2,9.5,9.8,18.4,16.5,26.3c1.8,2.1,3.7,4.2,4.4,6.9c1,3.8-0.7,7.8-2.8,11.1c-4.8,7.7-12.9,16-21.6,19.2
					c-10.6,3.8-13-0.1-21.1-6.5C667.2,696.8,647.2,688.9,625.7,689.3z"/>
				<path class="st13" d="M1068.2,657.3c0,0,18.5,195.2-31.7,184.4c-50.2-10.8-309-179.7-309-179.7l-53.9,49.3
					c0,0,298.2,335.7,374.4,310.3c76.3-25.4,171.7-136.5,185.8-249C1247.8,660.1,1184.6,580,1068.2,657.3z"/>
				<ellipse class="st20" cx="870.6" cy="492.5" rx="15.8" ry="39.1"/>
				<path class="st21" d="M883.7,470.6c-7.2,19-13.6,38.3-19.3,57.8c0.6,0.7,1.3,1.2,2,1.7c6.6-14.6,13.2-29.2,19.8-43.8
					C885.9,480.6,885,475.3,883.7,470.6z"/>
				<path class="st21" d="M882.8,467.4c-1.3-4-3-7.3-4.9-9.7c-8.3,18.6-15,37.8-20.1,57.5c0.5,1.6,1,3.1,1.5,4.5
					c4.2-8.8,7.3-18.2,11.1-27.3C874,483.8,878.2,475.6,882.8,467.4z"/>
				<path class="st13" d="M983.5,414.8c-4.6,1.3-8.5,4.6-12.4,7.1c-4.3,2.8-8.6,5.5-12.9,8.2c-8.9,5.6-17.8,11.2-26.8,16.6
					c-15.2,9.2-31.5,17.6-45.9,28.2c-2-10.5-9.1-26.4-21.1-22.8c-5.8,1.8-7.9,8.2-9.4,13.4c-2.4,8.6-2.4,16.3-1.3,25
					c0.1,1,1.9,1.5,2,0.3c0.7-4.8,2.1-9.7,3.2-14.5c1.1-4.9,2.2-10.3,4.4-14.8c3.3-6.8,8.9-1.8,11.2,2.7c2.5,4.9,3.6,10,5,15.2
					c0.9,3.3,6,3,6.5-0.2c17.3-6.5,33.5-16.8,49.3-25.9c8.8-5.1,17.6-10.3,26.3-15.6c4.4-2.6,8.7-5.3,13-8c4.2-2.6,9.3-5,12.6-8.8
					C989.5,418.3,987.4,413.7,983.5,414.8z"/>
				<path class="st11" d="M859.6,492.2c-4.9-7.4-16.3-6.6-19.2,2.1c-0.7,2.1,2.3,3.2,3.4,1.4c1.2-1.9,3.3-3.4,5.6-2.9
					c1.9,0.3,2.7,1.8,3.5,3.4C855.1,500.7,862.4,496.5,859.6,492.2z"/>
			</g>
			<path class="st5" d="M1414,582.9c69.4,14.5,137.6,40.5,193.2,84.5c20.9,16.5,40,35.7,54,58.4c26.1,42.5,32,97.4,13.6,143.8
				c-18.3,46.4-61.1,82.9-110.2,91.8c-49.1,8.9-102.8-11-132.8-50.9c-14.6-19.5-23.5-42.5-33.6-64.7
				c-35.4-77.6-88.4-147.1-153.8-201.8c-28.4-23.8-73.3-77.3-7.8-80.7C1294.2,560.2,1357.9,571.1,1414,582.9z"/>
			<path class="st22" d="M1358.5,650.6c10.2-3.1,20.5-7.5,27.4-15.6c4.9-5.8,7.7-13,10-20.2c3.5-11.1,6-22.6,7.5-34.1
				c-53.4-10.9-112.8-20.3-166.7-17.5c-65.5,3.4-20.6,57,7.8,80.7c7.2,6,14.2,12.2,21,18.5c8.9-0.3,17.8-0.8,26.6-1.4
				C1314.6,659.4,1337.1,657.1,1358.5,650.6z"/>
			<path class="st5" d="M1093.7,528.9c19-15.4,44.5-20.2,68.9-20.6c21.4-0.4,42.7,2.1,64,4.6c22.6,2.7,45.2,5.3,67.9,8
				c5.7,0.7,11.4,1.3,16.7,3.4c6.3,2.4,11.8,6.7,16.3,11.8c14.4,16.2,17.6,43,3.5,59.4c-6.5,7.6-15.7,12.2-24.7,16.6
				c-21.9,10.9-45,22-69.5,21.1c-34.8-1.2-64.6-26.2-99-31.4c-18.4-2.8-50,5.3-62.7-12.6C1061.9,570.6,1079.1,540.8,1093.7,528.9z"
				/>
			<path class="st23" d="M1032.2,659.7c30.9-32.9,79.5-46.6,123.9-38.6c44.4,8,83.9,36.2,109.4,73.4c6.2,9,13.8,19.7,24.7,19
				c11.9-0.8,18-15.2,17.4-27.2c-1.3-24.6-19.1-45.1-38.1-60.7c-56-45.7-135.4-64.7-203.5-40.6c-16.7,5.9-32.7,14.4-45,27.2
				s-20.4,30.1-19.4,47.8c0.4,6.7,4.3,25.7,14.4,23.5C1021.6,682.1,1027.6,664.5,1032.2,659.7z"/>
		</g>
	</g>
</g>
</svg>
